{"accessors" : [{"bufferView" : 0, "byteOffset" : 0, "componentType" : 5123, "count" : 144, "type" : "SCALAR", "max" : [95], "min" : [0]}, {"bufferView" : 1, "byteOffset" : 0, "componentType" : 5126, "count" : 96, "type" : "VEC3", "max" : [0.866025447845459, 0.05000000074505806, 1], "min" : [-0.866025447845459, -0.05000000074505806, -1], "name" : "POSITION"}, {"bufferView" : 1, "byteOffset" : 12, "componentType" : 5126, "count" : 96, "type" : "VEC3", "max" : [1.0000044107437134, 1.0000044107437134, 0.8660292625427246], "min" : [-1.0000044107437134, -1.0000044107437134, -0.8660292029380798], "name" : "NORMAL"}, {"bufferView" : 1, "byteOffset" : 24, "componentType" : 5126, "count" : 96, "type" : "VEC2", "max" : [1, 0.9900000095367432], "min" : [-8.940696716308594E-08, 0], "name" : "TEXCOORD_0"}, {"bufferView" : 0, "byteOffset" : 288, "componentType" : 5123, "count" : 41052, "type" : "SCALAR", "max" : [8980], "min" : [0]}, {"bufferView" : 2, "byteOffset" : 0, "componentType" : 5126, "count" : 8981, "type" : "VEC3", "max" : [0.866025447845459, 0.024351708590984344, 1], "min" : [-0.866025447845459, 0.024351708590984344, -0.9999999403953552], "name" : "POSITION"}, {"bufferView" : 2, "byteOffset" : 12, "componentType" : 5126, "count" : 8981, "type" : "VEC3", "max" : [1.029644991490386E-07, 1.0000044107437134, -0], "min" : [-9.764448094529143E-08, 1.0000042915344238, -0], "name" : "NORMAL"}, {"bufferView" : 2, "byteOffset" : 24, "componentType" : 5126, "count" : 8981, "type" : "VEC2", "max" : [0.9330129623413086, 1], "min" : [0.0669872984290123, 0], "name" : "TEXCOORD_0"}, {"bufferView" : 0, "byteOffset" : 82392, "componentType" : 5123, "count" : 41052, "type" : "SCALAR", "max" : [8824], "min" : [0]}, {"bufferView" : 3, "byteOffset" : 0, "componentType" : 5126, "count" : 8825, "type" : "VEC3", "max" : [0.866025447845459, 0, 1], "min" : [-0.866025447845459, 0, -1], "name" : "POSITION"}, {"bufferView" : 3, "byteOffset" : 12, "componentType" : 5126, "count" : 8825, "type" : "VEC3", "max" : [-0, -1.0000042915344238, -0], "min" : [-0, -1.0000044107437134, -0], "name" : "NORMAL"}, {"bufferView" : 3, "byteOffset" : 24, "componentType" : 5126, "count" : 8825, "type" : "VEC2", "max" : [0.9330129623413086, 1], "min" : [0.0669872984290123, 0], "name" : "TEXCOORD_0"}], "asset" : {"generator" : "Aspose.3D 21.6", "version" : "2.0"}, "buffers" : [{"uri" : "data:application/octet-stream;base64,", "byteLength" : 2796448}], "bufferViews" : [{"buffer" : 0, "byteOffset" : 0, "byteLength" : 164496, "target" : 34963}, {"buffer" : 0, "byteOffset" : 164500, "byteLength" : 4608, "byteStride" : 32, "target" : 34962}, {"buffer" : 0, "byteOffset" : 169112, "byteLength" : 1313664, "byteStride" : 32, "target" : 34962}, {"buffer" : 0, "byteOffset" : 1482780, "byteLength" : 1313664, "byteStride" : 32, "target" : 34962}], "materials" : [{"pbrMetallicRoughness" : {"baseColorFactor" : [0.02690780907869339, 0.23799659311771393, 0.8000000715255737, 1], "metallicFactor" : 0, "roughnessFactor" : 0.5}, "emissiveFactor" : [0, 0, 0], "alphaMode" : "OPAQUE", "doubleSided" : true}], "meshes" : [{"primitives" : [{"attributes" : {"POSITION" : 1, "NORMAL" : 2, "TEXCOORD_0" : 3}, "indices" : 0, "material" : 0, "mode" : 4}]}, {"primitives" : [{"attributes" : {"POSITION" : 5, "NORMAL" : 6, "TEXCOORD_0" : 7}, "indices" : 4, "mode" : 4}]}, {"primitives" : [{"attributes" : {"POSITION" : 9, "NORMAL" : 10, "TEXCOORD_0" : 11}, "indices" : 8, "mode" : 4}]}], "nodes" : [{"mesh" : 0, "name" : "border"}, {"matrix" : [0.9649596214294434, 0, 0, 0, 0, -0.9649596214294434, 0, 0, 0, 0, 0.9649596214294434, 0, 0, 0, 0, 1], "mesh" : 1, "name" : "bottom"}, {"matrix" : [0.9649596214294434, 0, 0, 0, 0, 0.9649596214294434, 0, 0, 0, 0, 0.9649596214294434, 0, 0, 0, 0, 1], "mesh" : 2, "name" : "terrain"}, {"matrix" : [0.9649596214294434, 0, 0, 0, 0, 0.9649596214294434, 0, 0, 0, 0, 0.9649596214294434, 0, 0, 0, 0, 1], "mesh" : 1, "name" : "top"}, {"children" : [0, 1, 2, 3], "name" : "hexTile"}], "scene" : 0, "scenes" : [{"nodes" : [4]}]}